<svg width="18" height="19" viewBox="0 0 18 19" fill="none" xmlns="http://www.w3.org/2000/svg">
<path fill-rule="evenodd" clip-rule="evenodd" d="M1.76019 12.7782L4.30019 12.4784C4.91019 12.406 5.51019 12.6231 5.94019 13.0676L7.78019 14.9697C10.6102 13.4811 12.9302 11.0932 14.3702 8.1574L12.5202 6.245C12.0902 5.80049 11.8802 5.18026 11.9502 4.54968L12.2402 1.94469C12.3602 0.900624 13.2102 0.11499 14.2302 0.11499H15.9602C17.0902 0.11499 18.0302 1.08669 17.9602 2.25481C17.4302 11.0828 10.6002 18.1329 2.07019 18.6807C0.940193 18.7531 0.00019455 17.7814 0.00019455 16.6133V14.8249C-0.00980568 13.7809 0.750193 12.9022 1.76019 12.7782Z" fill="white"/>
</svg>
